HIERARCHY
ROOT Hips
{
	OFFSET -0.001795 -0.223333 0.028219
	CHANNELS 6 Xposition Yposition Zposition Zrotation Yrotation Xrotation 
	JOINT LeftUpLeg
	{
		OFFSET 0.069520 -0.091406 -0.006815
		CHANNELS 3 Zrotation Yrotation Xrotation
		JOINT LeftLeg
		{
			OFFSET 0.034277 -0.375199 -0.004496
			CHANNELS 3 Zrotation Yrotation Xrotation
			JOINT LeftFoot
			{
				OFFSET -0.013596 -0.397961 -0.043693
				CHANNELS 3 Zrotation Yrotation Xrotation
				JOINT LeftToe
				{
					OFFSET 0.026358 -0.055791 0.119288
					CHANNELS 3 Zrotation Yrotation Xrotation
					End Site
					{
						OFFSET 0.000000 0.000000 0.000000
					}
				}
			}
		}
	}
	JOINT RightUpLeg
	{
		OFFSET -0.067670 -0.090522 -0.004320
		CHANNELS 3 Zrotation Yrotation Xrotation
		JOINT RightLeg
		{
			OFFSET -0.038290 -0.382569 -0.008850
			CHANNELS 3 Zrotation Yrotation Xrotation
			JOINT RightFoot
			{
				OFFSET 0.015774 -0.398415 -0.042312
				CHANNELS 3 Zrotation Yrotation Xrotation
				JOINT RightToe
				{
					OFFSET -0.025372 -0.048144 0.123348
					CHANNELS 3 Zrotation Yrotation Xrotation
					End Site
					{
						OFFSET 0.000000 0.000000 0.000000
					}
				}
			}
		}
	}
	JOINT Spine
	{
		OFFSET -0.002533 0.108963 -0.026696
		CHANNELS 3 Zrotation Yrotation Xrotation
		JOINT Spine1
		{
			OFFSET 0.005487 0.135180 0.001092
			CHANNELS 3 Zrotation Yrotation Xrotation
			JOINT Spine2
			{
				OFFSET 0.001457 0.052922 0.025425
				CHANNELS 3 Zrotation Yrotation Xrotation
				JOINT Neck
				{
					OFFSET -0.002778 0.213870 -0.042857
					CHANNELS 3 Zrotation Yrotation Xrotation
					JOINT Head
					{
						OFFSET 0.005152 0.064970 0.051349
						CHANNELS 3 Zrotation Yrotation Xrotation
						End Site
						{
							OFFSET 0.000000 0.000000 0.000000
						}
					}
				}
				JOINT LeftShoulder
				{
					OFFSET 0.078845 0.121749 -0.034090
					CHANNELS 3 Zrotation Yrotation Xrotation
					JOINT LeftArm
					{
						OFFSET 0.090977 0.030469 -0.008868
						CHANNELS 3 Zrotation Yrotation Xrotation
						JOINT LeftForeArm
						{
							OFFSET 0.259612 -0.012772 -0.027456
							CHANNELS 3 Zrotation Yrotation Xrotation
							JOINT LeftHand
							{
								OFFSET 0.249234 0.008986 -0.001171
								CHANNELS 3 Zrotation Yrotation Xrotation
								End Site
								{
									OFFSET 0.000000 0.000000 0.000000
								}
							}
						}
					}
				}
				JOINT RightShoulder
				{
					OFFSET -0.081759 0.118833 -0.038615
					CHANNELS 3 Zrotation Yrotation Xrotation
					JOINT RightArm
					{
						OFFSET -0.096012 0.032551 -0.009143
						CHANNELS 3 Zrotation Yrotation Xrotation
						JOINT RightForeArm
						{
							OFFSET -0.253742 -0.013329 -0.021401
							CHANNELS 3 Zrotation Yrotation Xrotation
							JOINT RightHand
							{
								OFFSET -0.255298 0.007772 -0.005559
								CHANNELS 3 Zrotation Yrotation Xrotation
								End Site
								{
									OFFSET 0.000000 0.000000 0.000000
								}
							}
						}
					}
				}
			}
		}
	}
}
MOTION
Frames: 11
Frame Time: 0.050000
-0.103982 0.356718 0.977068 -6.192483 -6.150085 -25.596820 38.812664 18.800004 -59.467643 -19.141576 38.484337 131.076126 9.338094 28.200751 -44.875452 0.000000 0.000000 0.000000 -26.318883 -6.961865 -62.743023 36.831066 -56.587267 114.846578 -16.205030 -49.960325 -14.663095 0.000000 0.000000 0.000000 -7.968326 4.743843 81.802084 -3.223311 1.841640 5.823963 -4.474010 2.681986 -3.889637 13.818685 -4.263684 -27.432111 0.000000 0.000000 0.000000 -2.124130 -44.609949 14.873838 -15.667937 -42.033878 2.848208 42.520773 -15.428461 -6.276430 0.000000 0.000000 0.000000 14.321581 32.075282 14.027538 27.076079 36.805276 5.613635 -46.031953 49.315305 -20.445144 0.000000 0.000000 0.000000 
-0.104386 0.357714 0.977162 -6.159248 -6.087175 -25.473314 38.958503 18.990023 -59.859253 -19.090933 38.430119 131.166877 9.377664 27.696023 -43.961886 0.000000 0.000000 0.000000 -26.203284 -6.930715 -62.899658 37.096406 -56.514855 114.341096 -16.741108 -50.620394 -13.791158 0.000000 0.000000 0.000000 -8.032196 4.759449 81.682262 -3.242137 1.850564 5.710267 -4.064276 2.609552 -3.923270 13.907832 -4.277710 -27.615031 0.000000 0.000000 0.000000 -2.269845 -44.574779 14.939206 -14.688083 -41.761063 2.546492 41.704227 -14.254748 -5.673507 0.000000 0.000000 0.000000 14.118932 31.852179 13.837775 25.938259 37.056403 5.377409 -46.495171 48.528297 -20.343154 0.000000 0.000000 0.000000 
-0.105433 0.357790 0.977345 -6.071441 -6.027161 -25.392531 39.052680 19.132688 -60.176127 -18.832683 37.636345 131.112072 9.340510 26.610383 -43.517993 0.000000 0.000000 0.000000 -25.957373 -6.826145 -63.133649 37.912647 -57.000855 113.500139 -17.717590 -52.265441 -12.753166 0.000000 0.000000 0.000000 -8.137591 4.804930 81.387256 -3.149890 1.806569 6.078196 -4.014761 2.162582 -4.545362 13.486733 -4.169253 -27.116650 0.000000 0.000000 0.000000 -2.302221 -44.652434 15.071581 -13.617107 -41.102655 2.220558 40.570368 -12.527123 -4.832107 0.000000 0.000000 0.000000 14.222925 31.877019 13.787136 25.929742 37.813219 5.590575 -47.737062 47.172651 -20.418949 0.000000 0.000000 0.000000 
-0.106918 0.358153 0.977216 -5.985307 -5.797276 -24.997108 39.053296 19.179736 -60.662106 -18.022753 35.904584 131.528293 9.174220 23.626811 -43.727657 0.000000 0.000000 0.000000 -25.929575 -6.938140 -63.634160 37.821543 -57.175432 113.687164 -17.781629 -52.186184 -12.552762 0.000000 0.000000 0.000000 -8.464721 4.976325 81.270425 -3.175559 1.802727 5.597253 -3.512333 2.272556 -3.933014 13.503655 -4.095734 -27.779282 0.000000 0.000000 0.000000 -1.382649 -44.963898 14.861689 -11.756220 -40.752171 1.660985 39.114652 -10.944429 -4.063148 0.000000 0.000000 0.000000 13.243733 31.834795 13.509984 26.175700 39.117049 5.920037 -48.178593 45.513742 -19.805502 0.000000 0.000000 0.000000 
-0.108334 0.359705 0.976543 -5.756702 -5.602789 -24.629875 38.842025 19.031713 -60.820338 -18.288559 35.763584 130.584418 9.199704 23.607620 -43.806508 0.000000 0.000000 0.000000 -25.839605 -6.953930 -63.842591 38.023437 -57.011443 113.172889 -17.973001 -52.750483 -12.653794 0.000000 0.000000 0.000000 -8.694492 5.112659 81.186151 -2.832835 1.589649 5.366426 -3.595715 2.515159 -3.890151 13.070593 -3.739749 -28.399830 0.000000 0.000000 0.000000 -0.411950 -45.059751 14.548064 -10.654971 -40.869653 1.335459 36.900685 -8.955734 -3.168360 0.000000 0.000000 0.000000 12.959319 31.987719 13.582944 26.123132 39.995245 6.093179 -47.740374 43.140439 -18.385018 0.000000 0.000000 0.000000 
-0.109645 0.364299 0.975437 -5.822251 -4.978552 -23.620800 38.453916 18.715419 -61.679761 -18.440586 34.609651 128.753367 9.193635 22.353201 -43.992391 0.000000 0.000000 0.000000 -25.925082 -7.261681 -63.859713 37.568015 -56.529527 113.209410 -16.852691 -51.268018 -14.386761 0.000000 0.000000 0.000000 -8.990083 5.067529 81.162488 -2.789568 1.544400 5.019608 -3.507183 3.251752 -3.893992 13.001585 -3.484096 -29.171540 0.000000 0.000000 0.000000 -0.642425 -45.736924 14.834979 -8.697619 -40.252846 0.751320 34.894840 -7.777114 -2.617042 0.000000 0.000000 0.000000 12.160537 31.892824 13.545983 26.560397 41.282964 6.485117 -46.170761 40.862834 -16.460847 0.000000 0.000000 0.000000 
-0.110617 0.370804 0.973999 -5.510053 -4.558762 -22.641561 38.446421 18.621618 -61.948561 -19.196861 34.222354 126.032398 9.197897 21.036878 -43.689439 0.000000 0.000000 0.000000 -26.158091 -7.490346 -63.632346 38.157442 -56.214770 111.884602 -16.339888 -51.160100 -15.950215 0.000000 0.000000 0.000000 -9.576952 5.398000 80.917968 -2.757045 1.514664 4.859856 -3.467902 4.162942 -3.626840 12.798068 -3.113467 -30.165377 0.000000 0.000000 0.000000 -1.061373 -45.980333 15.007425 -6.774319 -39.875949 0.184376 33.651621 -7.224322 -2.362362 0.000000 0.000000 0.000000 12.314805 32.513932 14.151025 26.276671 41.962184 6.499154 -44.675760 38.796345 -14.760543 0.000000 0.000000 0.000000 
-0.111508 0.379032 0.972549 -5.398620 -3.639309 -21.596590 38.107464 18.122838 -62.612899 -20.392864 34.120900 122.427200 9.273190 21.016334 -43.123353 0.000000 0.000000 0.000000 -26.274813 -7.889740 -63.272274 38.562740 -55.802485 110.616451 -16.195374 -51.212881 -16.581762 0.000000 0.000000 0.000000 -9.790709 5.140945 80.654911 -2.872495 1.558431 4.488450 -3.552455 5.048178 -2.847390 12.770926 -2.757916 -31.739676 0.000000 0.000000 0.000000 -2.062133 -46.436442 15.432168 -4.858789 -39.482524 -0.357898 32.486992 -6.675679 -2.126628 0.000000 0.000000 0.000000 11.206772 32.345958 13.981864 26.966534 43.496231 7.048887 -41.973781 36.027523 -12.453498 0.000000 0.000000 0.000000 
-0.112065 0.386186 0.971254 -5.331197 -2.933651 -20.548038 38.178516 17.983168 -63.259351 -21.671374 34.534859 119.345958 9.341027 20.986111 -42.175143 0.000000 0.000000 0.000000 -26.443492 -8.239266 -63.011385 40.812842 -56.243363 107.398749 -17.102682 -53.411726 -16.294823 0.000000 0.000000 0.000000 -10.047313 5.050155 80.805494 -2.885359 1.545690 3.891158 -3.879106 5.800915 -2.534334 12.843801 -2.588538 -32.436658 0.000000 0.000000 0.000000 -2.919283 -46.938180 15.871104 -3.655899 -38.726810 -0.700423 31.871187 -7.247387 -2.224129 0.000000 0.000000 0.000000 11.642357 33.164433 14.746806 26.466151 44.232264 7.006893 -40.077552 34.050620 -10.960943 0.000000 0.000000 0.000000 
-0.112495 0.396759 0.970249 -5.392705 -2.203488 -19.250641 37.867193 17.620751 -64.057320 -22.894193 34.648327 115.987738 9.514086 21.860723 -40.659244 0.000000 0.000000 0.000000 -26.875198 -8.729692 -62.592762 41.612950 -55.822419 105.504453 -16.746093 -52.359406 -16.577529 0.000000 0.000000 0.000000 -10.206150 4.797612 80.247386 -3.312692 1.755526 3.164721 -3.684373 6.329407 -1.081756 12.304739 -2.156382 -33.595476 0.000000 0.000000 0.000000 -2.506635 -47.052423 15.776146 -2.289992 -38.607789 -1.134221 31.419179 -7.166814 -2.155116 0.000000 0.000000 0.000000 9.821632 33.526605 14.487024 25.706328 45.634443 7.055299 -39.015526 31.458812 -9.613631 0.000000 0.000000 0.000000 
-0.112608 0.407317 0.969283 -5.492663 -1.909064 -18.309852 38.193464 17.820032 -64.597469 -23.061020 34.899489 115.706668 9.320635 19.512041 -37.536433 0.000000 0.000000 0.000000 -27.225012 -8.990787 -62.241702 43.584924 -55.926676 102.548580 -17.341768 -52.426435 -15.243939 0.000000 0.000000 0.000000 -10.415289 4.780804 79.638696 -3.700355 1.958279 3.071821 -3.649520 6.697374 -0.710630 12.002745 -1.936768 -33.949701 0.000000 0.000000 0.000000 -3.093055 -47.029110 15.987243 -1.633015 -38.118710 -1.313606 30.208544 -8.037573 -2.237057 0.000000 0.000000 0.000000 9.674156 34.163017 14.868195 23.367647 45.948719 6.277264 -37.571627 30.327678 -8.792591 0.000000 0.000000 0.000000 
